<?xml version="1.0" standalone="no"?>
<!DOCTYPE svg PUBLIC "-//W3C//DTD SVG 20010904//EN"
 "http://www.w3.org/TR/2001/REC-SVG-20010904/DTD/svg10.dtd">
<svg version="1.0" xmlns="http://www.w3.org/2000/svg"
 width="400.000000pt" height="400.000000pt" viewBox="0 0 400.000000 400.000000"
 preserveAspectRatio="xMidYMid meet">
<metadata>
Created by potrace 1.11, written by Peter Selinger 2001-2013
</metadata>
<g transform="translate(0.000000,400.000000) scale(0.100000,-0.100000)"
fill="#000000" stroke="none">
<path d="M0 2000 l0 -2000 2000 0 2000 0 0 2000 0 2000 -2000 0 -2000 0 0
-2000z m3259 903 c0 -5 -95 -91 -210 -193 l-210 -185 -74 -3 -75 -3 0 -139 0
-140 50 0 50 0 0 -150 0 -150 -50 0 -50 0 -2 -472 -3 -473 -150 0 -150 0 -3
473 -2 472 -375 0 -375 0 0 -475 0 -475 -155 0 -155 0 0 475 0 475 -50 0 -50
0 0 150 0 150 50 0 50 0 0 140 0 140 -76 0 -76 0 -101 93 c-150 137 -297 280
-297 289 0 4 560 8 1245 8 685 0 1245 -3 1244 -7z"/>
<path d="M1630 2375 l0 -135 375 0 375 0 0 135 0 135 -375 0 -375 0 0 -135z"/>
</g>
</svg>
